<svg xmlns="http://www.w3.org/2000/svg" viewBox="0 0 51.22 55.89"><defs><style>.cls-1{fill:#fff;}</style></defs><title>logo-glyph-white-sml</title><g id="Layer_2" data-name="Layer 2"><g id="Layer_1-2" data-name="Layer 1"><path class="cls-1" d="M10.17,13.32h5.48V38.09H10.17Z"/><path class="cls-1" d="M20.29,30.51a12.75,12.75,0,0,1,1-5A13.47,13.47,0,0,1,24,21.32a13.08,13.08,0,0,1,4-2.83,12.09,12.09,0,0,1,9.84,0,13.2,13.2,0,0,1,6.81,7,13.11,13.11,0,0,1,0,10.08A13.17,13.17,0,0,1,42,39.68a12.89,12.89,0,0,1-4.06,2.78,12.47,12.47,0,0,1-9.84,0,12.73,12.73,0,0,1-4-2.78,13.3,13.3,0,0,1-2.73-4.12A12.71,12.71,0,0,1,20.29,30.51Zm4.84,0a8.4,8.4,0,0,0,.62,3.22,8.09,8.09,0,0,0,1.7,2.62A8.2,8.2,0,0,0,30,38.1a7.48,7.48,0,0,0,3.11.65,7.33,7.33,0,0,0,3-.65,7.83,7.83,0,0,0,2.49-1.76,8.46,8.46,0,0,0,2.29-5.83,8.22,8.22,0,0,0-.63-3.22,8.68,8.68,0,0,0-1.7-2.63,7.9,7.9,0,0,0-2.51-1.78,7.65,7.65,0,0,0-6.16,0,7.71,7.71,0,0,0-2.49,1.78,8.57,8.57,0,0,0-1.67,2.63A8.4,8.4,0,0,0,25.13,30.51Z"/><rect class="cls-1" x="6.35" y="9.04" width="13.13" height="5.3"/><rect class="cls-1" x="6.35" y="37.91" width="13.13" height="5.3"/><line class="cls-1" x1="15.36" y1="36.98" x2="11.71" y2="36.98"/><line class="cls-1" x1="15.36" y1="33.33" x2="15.36" y2="36.98"/><path class="cls-1" d="M45.21,0H6A6.32,6.32,0,0,0,0,6.55V49.34a6.32,6.32,0,0,0,6,6.55H45.21a6.32,6.32,0,0,0,6-6.55V6.55A6.32,6.32,0,0,0,45.21,0Zm2,41.25a6,6,0,0,1-6,6H10a6,6,0,0,1-6-6V10a6,6,0,0,1,6-6H41.25a6,6,0,0,1,6,6Z"/></g></g></svg>