<svg xmlns="http://www.w3.org/2000/svg" viewBox="0 0 76.48 83.45"><defs><style>.cls-1{fill:#fff;}</style></defs><title>logo-glyph-white-med</title><g id="Layer_2" data-name="Layer 2"><g id="Layer_1-2" data-name="Layer 1"><path class="cls-1" d="M15.19,19.88h8.18v37H15.19Z"/><path class="cls-1" d="M30.3,45.56A19,19,0,0,1,31.8,38a20.11,20.11,0,0,1,4.08-6.21,19.54,19.54,0,0,1,6-4.22,18,18,0,0,1,14.7,0A19.71,19.71,0,0,1,66.76,38a19.58,19.58,0,0,1,0,15,19.67,19.67,0,0,1-4.1,6.15,19.24,19.24,0,0,1-6.06,4.15,18.61,18.61,0,0,1-14.7,0,19,19,0,0,1-6-4.15,19.86,19.86,0,0,1-4.08-6.15A19,19,0,0,1,30.3,45.56Zm7.22,0a12.54,12.54,0,0,0,.92,4.8A12.09,12.09,0,0,0,41,54.26a12.24,12.24,0,0,0,3.77,2.63,11.17,11.17,0,0,0,4.64,1,11,11,0,0,0,4.55-1,11.69,11.69,0,0,0,3.72-2.63,12.63,12.63,0,0,0,3.42-8.71,12.27,12.27,0,0,0-.94-4.8,13,13,0,0,0-2.55-3.93,11.79,11.79,0,0,0-3.75-2.65,11.43,11.43,0,0,0-9.19,0,11.51,11.51,0,0,0-3.72,2.65,12.8,12.8,0,0,0-2.5,3.93A12.54,12.54,0,0,0,37.52,45.55Z"/><rect class="cls-1" x="9.48" y="13.5" width="19.6" height="7.91"/><rect class="cls-1" x="9.48" y="56.6" width="19.6" height="7.91"/><line class="cls-1" x1="22.93" y1="55.21" x2="17.49" y2="55.21"/><line class="cls-1" x1="22.93" y1="49.77" x2="22.93" y2="55.21"/><path class="cls-1" d="M67.51,0H9C4,0,0,4.4,0,9.79V73.67C0,79,4,83.45,9,83.45H67.51c4.93,0,9-4.4,9-9.79V9.79C76.48,4.4,72.44,0,67.51,0Zm3.05,61.59a9,9,0,0,1-9,9H14.88a9,9,0,0,1-9-9V14.88a9,9,0,0,1,9-9H61.59a9,9,0,0,1,9,9Z"/></g></g></svg>