<svg xmlns="http://www.w3.org/2000/svg" viewBox="0 0 106.63 116.35"><defs><style>.cls-1{fill:#438fcd;}</style></defs><title>logo-glyph-blue-large</title><g id="Layer_2" data-name="Layer 2"><g id="Layer_1-2" data-name="Layer 1"><path class="cls-1" d="M21.18,27.72H32.59V79.3H21.18Z"/><path class="cls-1" d="M42.24,63.51A26.55,26.55,0,0,1,44.34,53,28,28,0,0,1,50,44.39a27.24,27.24,0,0,1,8.38-5.89,25.16,25.16,0,0,1,20.49,0A27.49,27.49,0,0,1,93.07,53a27.29,27.29,0,0,1,0,21,27.42,27.42,0,0,1-5.72,8.58,26.82,26.82,0,0,1-8.45,5.78,26,26,0,0,1-20.49,0A26.51,26.51,0,0,1,50,82.6,27.69,27.69,0,0,1,44.34,74,26.46,26.46,0,0,1,42.24,63.51Zm10.07,0a17.48,17.48,0,0,0,1.28,6.69,16.85,16.85,0,0,0,3.55,5.45,17.06,17.06,0,0,0,5.26,3.67,15.58,15.58,0,0,0,6.47,1.35,15.27,15.27,0,0,0,6.34-1.35,16.3,16.3,0,0,0,5.19-3.67,17.6,17.6,0,0,0,4.76-12.14,17.11,17.11,0,0,0-1.31-6.69,18.06,18.06,0,0,0-3.55-5.48,16.44,16.44,0,0,0-5.22-3.7,15.93,15.93,0,0,0-12.82,0,16,16,0,0,0-5.19,3.7,17.85,17.85,0,0,0-3.48,5.48A17.48,17.48,0,0,0,52.31,63.51Z"/><rect class="cls-1" x="13.22" y="18.83" width="27.33" height="11.02"/><rect class="cls-1" x="13.22" y="78.91" width="27.33" height="11.02"/><line class="cls-1" x1="31.97" y1="76.98" x2="24.38" y2="76.98"/><line class="cls-1" x1="31.97" y1="69.39" x2="31.97" y2="76.98"/><path class="cls-1" d="M94.12,0H12.5C5.63,0,0,6.14,0,13.64v89.06c0,7.5,5.63,13.64,12.5,13.64H94.12c6.88,0,12.5-6.14,12.5-13.64V13.64C106.63,6.14,101,0,94.12,0Zm4.25,85.87a12.54,12.54,0,0,1-12.5,12.5H20.75a12.54,12.54,0,0,1-12.5-12.5V20.75a12.54,12.54,0,0,1,12.5-12.5H85.87a12.54,12.54,0,0,1,12.5,12.5Z"/></g></g></svg>