<svg xmlns="http://www.w3.org/2000/svg" viewBox="0 0 144.43 55.89"><defs><style>.cls-1{fill:#fff;}</style></defs><title>logo-full-white-sml</title><g id="Layer_2" data-name="Layer 2"><g id="Layer_1-2" data-name="Layer 1"><path class="cls-1" d="M22.5,9.28v5.49H14V43.52H8.27V14.78H0V9.28Z"/><path class="cls-1" d="M28.23,53.1H23.72q.7-1.41,1.32-2.7t1.22-2.63q.61-1.34,1.27-2.75T29,42q-1.08-2.11-2.23-4.46l-2.32-4.74L22.1,28l-2.18-4.46H24.8q1.78,3.48,2.91,5.82t1.83,3.95q.7,1.6,1.08,2.61t.61,1.86q.28-.85.66-1.86T33,33.33q.7-1.6,1.83-3.95t2.91-5.82h4.84Z"/><path class="cls-1" d="M66.88,33.61a11.22,11.22,0,0,1-.75,4.16A9.81,9.81,0,0,1,64,41.08a9.62,9.62,0,0,1-3.31,2.18,11.22,11.22,0,0,1-4.23.77,9.07,9.07,0,0,1-4.06-.87A6.06,6.06,0,0,1,50,41.31a2.41,2.41,0,0,0,0,.35,2.92,2.92,0,0,1,0,.4v11H45.51V23.56h4.32a9.21,9.21,0,0,0,.09,1.32A8.71,8.71,0,0,1,50,26.1a9.3,9.3,0,0,1,1-1,6.81,6.81,0,0,1,1.43-1,10.09,10.09,0,0,1,1.9-.75A8.36,8.36,0,0,1,56.64,23a11.49,11.49,0,0,1,4.18.73A8.88,8.88,0,0,1,64,25.89a9.83,9.83,0,0,1,2.09,3.33A12.14,12.14,0,0,1,66.88,33.61ZM62,33.52a6.29,6.29,0,0,0-1.53-4.34,5.4,5.4,0,0,0-4.25-1.71,6.71,6.71,0,0,0-2.49.45,5.68,5.68,0,0,0-1.95,1.27A6,6,0,0,0,50,33.47a6.28,6.28,0,0,0,.47,2.44,5.88,5.88,0,0,0,3.24,3.24,6.4,6.4,0,0,0,2.49.47,6.07,6.07,0,0,0,2.44-.47,5,5,0,0,0,1.81-1.31,6.18,6.18,0,0,0,1.13-1.95A6.93,6.93,0,0,0,62,33.52Z"/><path class="cls-1" d="M88.34,41.22a10.56,10.56,0,0,1-3.52,2.07,12.29,12.29,0,0,1-4.23.75,10.59,10.59,0,0,1-4.16-.82A10.48,10.48,0,0,1,73.05,41a11,11,0,0,1-2.28-3.33,10.18,10.18,0,0,1,0-8.13,11,11,0,0,1,2.28-3.33,10.64,10.64,0,0,1,3.33-2.25,10,10,0,0,1,4-.82,9.25,9.25,0,0,1,5.94,2A11.07,11.07,0,0,1,90,30.51q-1.41.52-3.26,1.24l-3.87,1.53-4,1.62q-2,.82-3.71,1.48a6.35,6.35,0,0,0,2.21,2.35,5.84,5.84,0,0,0,3.19.89A7.26,7.26,0,0,0,83,39.18,5.78,5.78,0,0,0,85,38ZM84.4,29.48A3.43,3.43,0,0,0,82.7,28a5.48,5.48,0,0,0-2.21-.49,5.91,5.91,0,0,0-2.4.49,6,6,0,0,0-1.93,1.32,6.39,6.39,0,0,0-1.27,1.88,5.32,5.32,0,0,0-.47,2.18v.19l2.51-1,2.68-1.1,2.56-1.06Z"/><path class="cls-1" d="M103.39,13.32h5.48V38.09h-5.48Z"/><path class="cls-1" d="M113.51,30.51a12.75,12.75,0,0,1,1-5,13.47,13.47,0,0,1,2.73-4.16,13.08,13.08,0,0,1,4-2.83,12.09,12.09,0,0,1,9.84,0,13.2,13.2,0,0,1,6.81,7,13.11,13.11,0,0,1,0,10.08,13.17,13.17,0,0,1-2.75,4.12,12.89,12.89,0,0,1-4.06,2.78,12.47,12.47,0,0,1-9.84,0,12.73,12.73,0,0,1-4-2.78,13.3,13.3,0,0,1-2.73-4.12A12.71,12.71,0,0,1,113.51,30.51Zm4.84,0a8.4,8.4,0,0,0,.62,3.22,8.09,8.09,0,0,0,1.7,2.62,8.2,8.2,0,0,0,2.53,1.76,7.48,7.48,0,0,0,3.11.65,7.33,7.33,0,0,0,3-.65,7.83,7.83,0,0,0,2.49-1.76,8.46,8.46,0,0,0,2.29-5.83,8.22,8.22,0,0,0-.63-3.22,8.68,8.68,0,0,0-1.7-2.63,7.9,7.9,0,0,0-2.51-1.78,7.65,7.65,0,0,0-6.16,0,7.71,7.71,0,0,0-2.49,1.78A8.57,8.57,0,0,0,119,27.29,8.4,8.4,0,0,0,118.34,30.51Z"/><rect class="cls-1" x="99.57" y="9.04" width="13.13" height="5.3"/><rect class="cls-1" x="99.57" y="37.91" width="13.13" height="5.3"/><line class="cls-1" x1="108.57" y1="36.98" x2="104.93" y2="36.98"/><line class="cls-1" x1="108.57" y1="33.33" x2="108.57" y2="36.98"/><path class="cls-1" d="M138.43,0H99.22a6.32,6.32,0,0,0-6,6.55V49.34a6.32,6.32,0,0,0,6,6.55h39.21a6.32,6.32,0,0,0,6-6.55V6.55A6.32,6.32,0,0,0,138.43,0Zm2,41.25a6,6,0,0,1-6,6H103.18a6,6,0,0,1-6-6V10a6,6,0,0,1,6-6h31.28a6,6,0,0,1,6,6Z"/></g></g></svg>