<svg xmlns="http://www.w3.org/2000/svg" viewBox="0 0 215.66 83.45"><defs><style>.cls-1{fill:#fff;}</style></defs><title>logo-full-white-med</title><g id="Layer_2" data-name="Layer 2"><g id="Layer_1-2" data-name="Layer 1"><path class="cls-1" d="M33.59,13.86v8.2H21V65H12.34V22.07H0v-8.2Z"/><path class="cls-1" d="M42.14,79.29H35.41q1.05-2.1,2-4t1.82-3.93q.91-2,1.89-4.1t2.17-4.56Q41.65,59.51,39.94,56l-3.47-7.08L33,41.84l-3.26-6.66H37q2.66,5.19,4.35,8.7t2.73,5.89q1.05,2.38,1.61,3.89t.91,2.77q.42-1.26,1-2.77t1.61-3.89q1.05-2.38,2.73-5.89t4.35-8.7h7.22Z"/><path class="cls-1" d="M99.86,50.19a16.76,16.76,0,0,1-1.12,6.21,14.65,14.65,0,0,1-3.19,4.94A14.37,14.37,0,0,1,90.6,64.6a16.75,16.75,0,0,1-6.31,1.16,13.55,13.55,0,0,1-6.07-1.3,9,9,0,0,1-3.61-2.77,3.6,3.6,0,0,0,0,.53,4.36,4.36,0,0,1,0,.6V79.29H68V35.18H74.4a13.75,13.75,0,0,0,.14,2A13,13,0,0,1,74.68,39a13.89,13.89,0,0,1,1.44-1.51A10.16,10.16,0,0,1,78.26,36a15.06,15.06,0,0,1,2.84-1.12,12.48,12.48,0,0,1,3.47-.46,17.16,17.16,0,0,1,6.24,1.09,13.26,13.26,0,0,1,4.8,3.16,14.67,14.67,0,0,1,3.12,5A18.13,18.13,0,0,1,99.86,50.19ZM92.56,50a9.4,9.4,0,0,0-2.28-6.49A8.06,8.06,0,0,0,83.94,41a10,10,0,0,0-3.72.67,8.49,8.49,0,0,0-2.91,1.89A9,9,0,0,0,74.68,50a9.38,9.38,0,0,0,.7,3.65,8.78,8.78,0,0,0,4.84,4.84,9.56,9.56,0,0,0,3.72.7,9.06,9.06,0,0,0,3.65-.7,7.4,7.4,0,0,0,2.7-2A9.23,9.23,0,0,0,92,53.59,10.35,10.35,0,0,0,92.56,50Z"/><path class="cls-1" d="M131.9,61.55a15.77,15.77,0,0,1-5.26,3.09,18.36,18.36,0,0,1-6.31,1.12,15.82,15.82,0,0,1-6.21-1.23,15.64,15.64,0,0,1-5-3.37,16.37,16.37,0,0,1-3.4-5,15.21,15.21,0,0,1,0-12.13,16.38,16.38,0,0,1,3.4-5,15.88,15.88,0,0,1,5-3.37,15,15,0,0,1,6-1.23,13.81,13.81,0,0,1,8.87,3.05,16.52,16.52,0,0,1,5.43,8q-2.1.77-4.87,1.86L123.7,49.7q-3,1.19-6,2.42t-5.54,2.21a9.48,9.48,0,0,0,3.3,3.51,8.72,8.72,0,0,0,4.77,1.33,10.84,10.84,0,0,0,3.68-.67,8.63,8.63,0,0,0,3.05-1.79ZM126,44a5.12,5.12,0,0,0-2.52-2.28,8.18,8.18,0,0,0-3.3-.74,8.82,8.82,0,0,0-3.58.74,9,9,0,0,0-2.87,2,9.55,9.55,0,0,0-1.89,2.8,7.94,7.94,0,0,0-.7,3.26V50l3.75-1.51q2-.81,4-1.65t3.82-1.58Q124.54,44.58,126,44Z"/><path class="cls-1" d="M154.37,19.88h8.18v37h-8.18Z"/><path class="cls-1" d="M169.48,45.56A19,19,0,0,1,171,38a20.11,20.11,0,0,1,4.08-6.21,19.54,19.54,0,0,1,6-4.22,18,18,0,0,1,14.7,0A19.71,19.71,0,0,1,205.94,38a19.58,19.58,0,0,1,0,15,19.67,19.67,0,0,1-4.1,6.15,19.24,19.24,0,0,1-6.06,4.15,18.61,18.61,0,0,1-14.7,0,19,19,0,0,1-6-4.15A19.86,19.86,0,0,1,171,53.09,19,19,0,0,1,169.48,45.56Zm7.22,0a12.54,12.54,0,0,0,.92,4.8,12.09,12.09,0,0,0,2.55,3.91,12.24,12.24,0,0,0,3.77,2.63,11.17,11.17,0,0,0,4.64,1,11,11,0,0,0,4.55-1,11.69,11.69,0,0,0,3.72-2.63,12.63,12.63,0,0,0,3.42-8.71,12.27,12.27,0,0,0-.94-4.8,13,13,0,0,0-2.55-3.93A11.79,11.79,0,0,0,193,34.17a11.43,11.43,0,0,0-9.19,0,11.51,11.51,0,0,0-3.72,2.65,12.8,12.8,0,0,0-2.5,3.93A12.54,12.54,0,0,0,176.7,45.55Z"/><rect class="cls-1" x="148.66" y="13.5" width="19.6" height="7.91"/><rect class="cls-1" x="148.66" y="56.6" width="19.6" height="7.91"/><line class="cls-1" x1="162.11" y1="55.21" x2="156.67" y2="55.21"/><line class="cls-1" x1="162.11" y1="49.77" x2="162.11" y2="55.21"/><path class="cls-1" d="M206.69,0H148.15c-4.93,0-9,4.4-9,9.79V73.67c0,5.38,4,9.79,9,9.79h58.54c4.93,0,9-4.4,9-9.79V9.79C215.66,4.4,211.62,0,206.69,0Zm3.05,61.59a9,9,0,0,1-9,9H154.07a9,9,0,0,1-9-9V14.88a9,9,0,0,1,9-9h46.71a9,9,0,0,1,9,9Z"/></g></g></svg>