<svg xmlns="http://www.w3.org/2000/svg" viewBox="0 0 300.68 116.35"><defs><style>.cls-1{fill:#231f20;}</style></defs><title>logo-full-black-large</title><g id="Layer_2" data-name="Layer 2"><g id="Layer_1-2" data-name="Layer 1"><path class="cls-1" d="M46.83,19.33V30.77H29.23V90.6h-12V30.77H0V19.33Z"/><path class="cls-1" d="M58.76,110.55H49.37q1.47-2.93,2.74-5.62t2.54-5.47q1.27-2.79,2.64-5.72t3-6.36q-2.25-4.4-4.64-9.29l-4.84-9.87L46,58.34,41.45,49H51.62q3.71,7.24,6.06,12.12t3.81,8.21q1.47,3.33,2.25,5.43T65,78.67q.59-1.76,1.37-3.86t2.25-5.43q1.47-3.32,3.81-8.21T78.51,49H88.58Z"/><path class="cls-1" d="M139.22,70a23.36,23.36,0,0,1-1.56,8.65,20.43,20.43,0,0,1-4.45,6.89,20,20,0,0,1-6.89,4.55,23.35,23.35,0,0,1-8.8,1.61,18.89,18.89,0,0,1-8.46-1.81A12.62,12.62,0,0,1,104,86a5,5,0,0,0,0,.73,6.08,6.08,0,0,1,0,.83v23H94.74V49h9a19.18,19.18,0,0,0,.2,2.74,18.13,18.13,0,0,1,.2,2.54,19.37,19.37,0,0,1,2-2.1,14.17,14.17,0,0,1,3-2.05,21,21,0,0,1,4-1.56,17.41,17.41,0,0,1,4.84-.64,23.92,23.92,0,0,1,8.7,1.52,18.48,18.48,0,0,1,6.7,4.4,20.46,20.46,0,0,1,4.35,6.94A25.28,25.28,0,0,1,139.22,70Zm-10.17-.2a13.1,13.1,0,0,0-3.18-9q-3.18-3.57-8.85-3.57a14,14,0,0,0-5.18.93,11.83,11.83,0,0,0-4.06,2.64,12.56,12.56,0,0,0-3.67,8.95,13.08,13.08,0,0,0,1,5.08,12.24,12.24,0,0,0,6.75,6.75,13.33,13.33,0,0,0,5.18,1,12.63,12.63,0,0,0,5.08-1,10.32,10.32,0,0,0,3.76-2.74,12.86,12.86,0,0,0,2.35-4.06A14.42,14.42,0,0,0,129.06,69.78Z"/><path class="cls-1" d="M183.91,85.81a22,22,0,0,1-7.33,4.3,25.59,25.59,0,0,1-8.8,1.56A22.05,22.05,0,0,1,159.12,90a21.81,21.81,0,0,1-7-4.69,22.83,22.83,0,0,1-4.74-6.94,21.2,21.2,0,0,1,0-16.91,22.84,22.84,0,0,1,4.74-6.94A22.15,22.15,0,0,1,159,49.78a20.87,20.87,0,0,1,8.36-1.71,19.25,19.25,0,0,1,12.37,4.25,23,23,0,0,1,7.58,11.19q-2.93,1.08-6.8,2.59l-8.07,3.18q-4.2,1.66-8.41,3.37t-7.72,3.08a13.21,13.21,0,0,0,4.6,4.89,12.16,12.16,0,0,0,6.65,1.86,15.12,15.12,0,0,0,5.13-.93A12,12,0,0,0,177,79.07Zm-8.21-24.44a7.14,7.14,0,0,0-3.52-3.18,11.41,11.41,0,0,0-4.6-1,12.3,12.3,0,0,0-5,1,12.52,12.52,0,0,0-4,2.74,13.31,13.31,0,0,0-2.64,3.91,11.07,11.07,0,0,0-1,4.55v.39l5.23-2.1q2.79-1.12,5.57-2.3t5.33-2.2Q173.64,62.15,175.69,61.37Z"/><path class="cls-1" d="M215.23,27.72h11.41V79.3H215.23Z"/><path class="cls-1" d="M236.3,63.51A26.55,26.55,0,0,1,238.39,53a28,28,0,0,1,5.68-8.65,27.24,27.24,0,0,1,8.38-5.89,25.16,25.16,0,0,1,20.49,0A27.49,27.49,0,0,1,287.13,53a27.29,27.29,0,0,1,0,21,27.42,27.42,0,0,1-5.72,8.58A26.82,26.82,0,0,1,273,88.38a26,26,0,0,1-20.49,0,26.51,26.51,0,0,1-8.38-5.78A27.69,27.69,0,0,1,238.39,74,26.46,26.46,0,0,1,236.3,63.51Zm10.07,0a17.48,17.48,0,0,0,1.28,6.69,16.85,16.85,0,0,0,3.55,5.45,17.06,17.06,0,0,0,5.26,3.67,15.58,15.58,0,0,0,6.47,1.35,15.27,15.27,0,0,0,6.34-1.35,16.3,16.3,0,0,0,5.19-3.67,17.6,17.6,0,0,0,4.76-12.14,17.11,17.11,0,0,0-1.31-6.69,18.06,18.06,0,0,0-3.55-5.48,16.44,16.44,0,0,0-5.22-3.7,15.93,15.93,0,0,0-12.82,0,16,16,0,0,0-5.19,3.7,17.85,17.85,0,0,0-3.48,5.48A17.48,17.48,0,0,0,246.37,63.51Z"/><rect class="cls-1" x="207.27" y="18.83" width="27.33" height="11.02"/><rect class="cls-1" x="207.27" y="78.91" width="27.33" height="11.02"/><line class="cls-1" x1="226.02" y1="76.98" x2="218.44" y2="76.98"/><line class="cls-1" x1="226.02" y1="69.39" x2="226.02" y2="76.98"/><path class="cls-1" d="M288.18,0H206.56c-6.88,0-12.5,6.14-12.5,13.64v89.06c0,7.5,5.63,13.64,12.5,13.64h81.62c6.88,0,12.5-6.14,12.5-13.64V13.64C300.68,6.14,295.05,0,288.18,0Zm4.25,85.87a12.54,12.54,0,0,1-12.5,12.5H214.81a12.54,12.54,0,0,1-12.5-12.5V20.75a12.54,12.54,0,0,1,12.5-12.5h65.12a12.54,12.54,0,0,1,12.5,12.5Z"/></g></g></svg>